<?xml version="1.0" encoding="utf-8"?>
<!-- Generator: Adobe Illustrator 25.0.0, SVG Export Plug-In . SVG Version: 6.00 Build 0)  -->
<svg version="1.1" id="Layer_1" xmlns="http://www.w3.org/2000/svg" xmlns:xlink="http://www.w3.org/1999/xlink" x="0px" y="0px"
	 viewBox="0 0 1920 1080" style="enable-background:new 0 0 1920 1080;" xml:space="preserve">
<style type="text/css">
	.st0{opacity:0.9;}
	.st1{fill:url(#SVGID_1_);}
	.st2{opacity:0.18;}
	.st3{fill:none;stroke:#FFFFFF;stroke-miterlimit:10;}
	.st4{fill:#FFFFFF;}
	.st5{fill:#FFFFFF;stroke:#FFFFFF;stroke-width:2;stroke-miterlimit:10;}
	.st6{opacity:0.7;}
</style>
<g class="st0">
	
		<radialGradient id="SVGID_1_" cx="960" cy="1477.109" r="778.8453" gradientTransform="matrix(1 0 0 1 0 -936.7758)" gradientUnits="userSpaceOnUse">
		<stop  offset="0" style="stop-color:#00062A;stop-opacity:0.9"/>
		<stop  offset="0.9164" style="stop-color:#000628;stop-opacity:0.9916"/>
		<stop  offset="1" style="stop-color:#000627"/>
	</radialGradient>
	<rect y="0.33" class="st1" width="1920" height="1080"/>
</g>
<g class="st2">
	<g>
		<g>
			<polygon class="st3" points="1359.9,269.76 1409.65,298.5 1409.65,241.05 1359.9,212.32 1359.85,212.35 1359.94,269.73 			"/>
			<path class="st3" d="M1359.86,327.33l49.79-28.75v-0.02l-49.83-28.79l0.05-0.03l-0.09-57.41v-0.04l-49.71,28.7v57.58
				L1359.86,327.33z M1359.77,269.75l0.05,0.03l-49.74,28.79l49.74-28.79L1359.77,269.75z"/>
		</g>
		<polygon class="st4" points="1359.77,269.67 1310.15,298.54 1359.77,327.24 1409.74,298.54 		"/>
	</g>
	<g>
		<g>
			<polygon class="st3" points="1150.45,269.82 1179.2,220.07 1121.75,220.07 1093.02,269.82 1093.05,269.87 1150.43,269.78 			"/>
			<path class="st3" d="M1208.03,269.86l-28.75-49.79h-0.02l-28.79,49.83l-0.03-0.05l-57.41,0.09H1093l28.7,49.71h57.58
				L1208.03,269.86z M1150.45,269.95l0.03-0.05l28.79,49.74l-28.79-49.74L1150.45,269.95z"/>
		</g>
		<polygon class="st4" points="1150.36,269.94 1179.24,319.57 1207.94,269.94 1179.24,219.98 		"/>
	</g>
	<line class="st5" x1="1208.24" y1="269.95" x2="1310.06" y2="269.95"/>
</g>
<g class="st2">
	<g>
		<polygon class="st3" points="484.49,98.47 527.91,123.56 527.91,73.42 484.49,48.35 484.45,48.37 484.53,98.45 		"/>
		<path class="st3" d="M484.46,148.72l43.46-25.09v-0.02l-43.49-25.12l0.04-0.02l-0.08-50.1v-0.03L441,73.38l0,50.25L484.46,148.72z
			 M484.38,98.47l0.04,0.02l-43.41,25.12l43.41-25.12L484.38,98.47z"/>
	</g>
	<polygon class="st4" points="484.38,98.39 441.07,123.59 484.38,148.64 527.98,123.59 	"/>
</g>
<g class="st6">
	<g>
		<polygon class="st3" points="672.41,269.52 712.5,200.13 632.38,200.13 592.32,269.52 592.35,269.58 672.38,269.45 		"/>
		<path class="st3" d="M752.71,269.57l-40.09-69.44h-0.03l-40.14,69.49l-0.04-0.07l-80.07,0.13h-0.05l40.02,69.32h80.3
			L752.71,269.57z M672.41,269.69l0.04-0.07L712.59,339l-40.15-69.37L672.41,269.69z"/>
	</g>
	<polygon class="st4" points="672.29,269.69 712.55,338.89 752.58,269.69 712.55,200.01 	"/>
</g>
<g class="st2">
	<g>
		<polygon class="st3" points="1510.03,785.97 1565.43,690.06 1454.7,690.06 1399.33,785.97 1399.38,786.06 1509.97,785.88 		"/>
		<path class="st3" d="M1621,786.04l-55.41-95.97h-0.04l-55.48,96.04l-0.05-0.09l-110.66,0.18h-0.07l55.32,95.81h110.98L1621,786.04
			z M1510.02,786.21l0.05-0.09l55.49,95.87l-55.49-95.87L1510.02,786.21z"/>
	</g>
	<polygon class="st4" points="1509.85,786.2 1565.5,881.85 1620.83,786.2 1565.5,689.9 	"/>
</g>
<g class="st2">
	<g>
		<g>
			<polygon class="st3" points="255.91,859.54 149.84,798.26 149.84,920.73 255.91,981.97 256.01,981.91 255.81,859.59 			"/>
			<path class="st3" d="M255.99,736.8l-106.15,61.29v0.04l106.23,61.36l-0.1,0.06l0.2,122.39v0.08l105.97-61.18l0-122.75
				L255.99,736.8z M256.18,859.54l-0.1-0.06l106.04-61.37l-106.04,61.37L256.18,859.54z"/>
		</g>
		<polygon class="st4" points="256.17,859.73 361.96,798.18 256.17,736.98 149.66,798.18 		"/>
	</g>
	<g>
		<g>
			<polygon class="st3" points="256.03,414.56 194.76,520.63 317.23,520.63 378.47,414.56 378.41,414.46 256.09,414.66 			"/>
			<path class="st3" d="M133.29,414.48l61.29,106.15h0.04l61.36-106.23l0.06,0.1l122.39-0.2h0.08l-61.18-105.97H194.58
				L133.29,414.48z M256.04,414.29l-0.06,0.1l-61.37-106.04l61.37,106.04L256.04,414.29z"/>
		</g>
		<polygon class="st4" points="256.22,414.31 194.67,308.51 133.48,414.31 194.67,520.81 		"/>
	</g>
	<line class="st5" x1="255.14" y1="520.32" x2="255.14" y2="737.39"/>
</g>
<g class="st2">
	<g>
		<g>
			<polygon class="st3" points="1208.56,921.8 1165.94,897.18 1165.94,946.39 1208.56,971 1208.6,970.97 1208.52,921.83 			"/>
			<path class="st3" d="M1208.59,872.49l-42.65,24.62v0.02l42.68,24.66l-0.04,0.02l0.08,49.18v0.03l42.58-24.58v-49.32
				L1208.59,872.49z M1208.67,921.81l-0.04-0.02l42.61-24.66l-42.61,24.66L1208.67,921.81z"/>
		</g>
		<polygon class="st4" points="1208.66,921.88 1251.17,897.15 1208.66,872.56 1165.87,897.15 		"/>
	</g>
	<g>
		<g>
			<polygon class="st3" points="1208.61,743.02 1183.99,785.63 1233.2,785.63 1257.8,743.02 1257.78,742.98 1208.63,743.06 			"/>
			<path class="st3" d="M1159.29,742.98l24.62,42.65h0.02l24.66-42.68l0.02,0.04l49.18-0.08h0.03l-24.58-42.58h-49.32
				L1159.29,742.98z M1208.61,742.91l-0.02,0.04l-24.66-42.61l24.66,42.61L1208.61,742.91z"/>
		</g>
		<polygon class="st4" points="1208.68,742.91 1183.95,700.41 1159.37,742.91 1183.95,785.71 		"/>
	</g>
	<line class="st5" x1="1208.25" y1="785.51" x2="1208.25" y2="872.72"/>
</g>
<g class="st2">
	<g>
		<polygon class="st3" points="1655.51,467.89 1586.12,427.81 1586.12,507.92 1655.51,547.99 1655.57,547.95 1655.44,467.93 		"/>
		<path class="st3" d="M1655.56,387.6l-69.44,40.09v0.03l69.49,40.14l-0.07,0.04l0.13,80.07v0.05l69.32-40.02v-80.3L1655.56,387.6z
			 M1655.68,467.9l-0.07-0.04l69.37-40.15l-69.37,40.15L1655.68,467.9z"/>
	</g>
	<polygon class="st4" points="1655.68,468.01 1724.88,427.75 1655.68,387.72 1586,427.75 	"/>
</g>
<g class="st2">
	<g>
		<polygon class="st3" points="672.1,884.31 613.27,986.16 730.86,986.16 789.67,884.31 789.62,884.21 672.16,884.4 		"/>
		<path class="st3" d="M554.24,884.23l58.85,101.93h0.04l58.92-102l0.05,0.1l117.53-0.19h0.08L730.96,782.3H613.09L554.24,884.23z
			 M672.11,884.05l-0.05,0.1l-58.93-101.82l58.93,101.82L672.11,884.05z"/>
	</g>
	<polygon class="st4" points="672.29,884.06 613.18,782.47 554.42,884.06 613.18,986.33 	"/>
</g>
</svg>
