<?xml version="1.0" standalone="no"?><svg xmlns:xlink="http://www.w3.org/1999/xlink" xmlns="http://www.w3.org/2000/svg" viewBox="0 0 1000 583.3404377895066" preserveAspectRatio="xMaxYMax slice"><g transform="scale(1.291719304228314)"><rect x="0" y="0" width="774.1714285714286" height="451.6" fill="#ffffff"/><rect x="0" y="0" width="64.51" height="64.51" fill="#6cbcfe"/><g transform="translate(64.51,0) scale(3.2255000000000003) rotate(0)"><rect width="20" height="10" fill="#f6fbff"/></g><g transform="translate(129.03,0) scale(3.2255000000000003) rotate(0)"><rect width="20" height="10" fill="#f0f6fc"/></g><rect x="193.54" y="0" width="64.51" height="64.51" fill="#86bae4"/><rect x="258.06" y="0" width="64.51" height="64.51" fill="#9cd2fe"/><rect x="322.57" y="0" width="64.51" height="64.51" fill="#89bce5"/><rect x="387.09" y="0" width="64.51" height="64.51" fill="#bcd9f0"/><rect x="451.6" y="0" width="64.51" height="64.51" fill="#529cd9"/><g transform="translate(516.11,0) scale(3.2255000000000003) rotate(0)"><rect width="20" height="10" fill="#f9fcfe"/></g><rect x="580.63" y="0" width="64.51" height="64.51" fill="#eaf5ff"/><rect x="645.14" y="0" width="64.51" height="64.51" fill="#7cc3fe"/><rect x="709.66" y="0" width="64.51" height="64.51" fill="#4695d6"/><g transform="translate(0,64.51) scale(3.2255000000000003) rotate(0)"><rect width="20" height="10" fill="#d8e9f6"/></g><g transform="translate(64.51,64.51) scale(3.2255000000000003) rotate(0)"><rect width="20" height="10" fill="#55b1fe"/></g><g transform="translate(129.03,64.51) scale(3.2255000000000003) rotate(0)"><rect width="20" height="10" fill="#f6fafd"/></g><rect x="193.54" y="64.51" width="64.51" height="64.51" fill="#70bdfe"/><g transform="translate(258.06,64.51) scale(3.2255000000000003) rotate(0)"><rect width="20" height="10" fill="#519cd9"/></g><g transform="translate(322.57,64.51) scale(3.2255000000000003) rotate(0)"><rect width="20" height="10" fill="#259bfd"/></g><rect x="387.09" y="64.51" width="64.51" height="64.51" fill="#3ea6fd"/><g transform="translate(451.6,64.51) scale(3.2255000000000003) rotate(0)"><rect width="20" height="10" fill="#d5e7f6"/></g><rect x="516.11" y="64.51" width="64.51" height="64.51" fill="#3d90d5"/><g transform="translate(580.63,64.51) scale(3.2255000000000003) rotate(0)"><rect width="20" height="10" fill="#64b8fe"/></g><g transform="translate(645.14,64.51) scale(3.2255000000000003) rotate(0)"><rect width="20" height="10" fill="#7ac2fe"/></g><g transform="translate(709.66,64.51) scale(3.2255000000000003) rotate(0)"><rect width="20" height="10" fill="#53b0fd"/></g><g transform="translate(0,129.03) scale(3.2255000000000003) rotate(0)"><rect width="20" height="10" fill="#6dabdf"/></g><rect x="64.51" y="129.03" width="64.51" height="64.51" fill="#a8d7fe"/><rect x="129.03" y="129.03" width="64.51" height="64.51" fill="#3d90d4"/><rect x="193.54" y="129.03" width="64.51" height="64.51" fill="#fbfdfe"/><g transform="translate(258.06,129.03) scale(3.2255000000000003) rotate(0)"><rect width="20" height="10" fill="#a2caeb"/></g><g transform="translate(322.57,129.03) scale(3.2255000000000003) rotate(0)"><rect width="20" height="10" fill="#8abce5"/></g><rect x="387.09" y="129.03" width="64.51" height="64.51" fill="#4f9ad8"/><g transform="translate(451.6,129.03) scale(3.2255000000000003) rotate(0)"><rect width="20" height="10" fill="#35a2fd"/></g><g transform="translate(516.11,129.03) scale(3.2255000000000003) rotate(0)"><rect width="20" height="10" fill="#6fbdfe"/></g><g transform="translate(580.63,129.03) scale(3.2255000000000003) rotate(0)"><rect width="20" height="10" fill="#69a9de"/></g><g transform="translate(645.14,129.03) scale(3.2255000000000003) rotate(0)"><rect width="20" height="10" fill="#9ed3fe"/></g><rect x="709.66" y="129.03" width="64.51" height="64.51" fill="#b0d2ee"/><rect x="0" y="193.54" width="64.51" height="64.51" fill="#8dbee6"/><rect x="64.51" y="193.54" width="64.51" height="64.51" fill="#7dc4fe"/><rect x="129.03" y="193.54" width="64.51" height="64.51" fill="#2b9efd"/><g transform="translate(193.54,193.54) scale(3.2255000000000003) rotate(0)"><rect width="20" height="10" fill="#82b7e4"/></g><rect x="258.06" y="193.54" width="64.51" height="64.51" fill="#5fa3dc"/><rect x="322.57" y="193.54" width="64.51" height="64.51" fill="#5da2dc"/><g transform="translate(387.09,193.54) scale(3.2255000000000003) rotate(0)"><rect width="20" height="10" fill="#66a7dd"/></g><g transform="translate(451.6,193.54) scale(3.2255000000000003) rotate(0)"><rect width="20" height="10" fill="#eff6fb"/></g><g transform="translate(516.11,193.54) scale(3.2255000000000003) rotate(0)"><rect width="20" height="10" fill="#35a2fd"/></g><g transform="translate(580.63,193.54) scale(3.2255000000000003) rotate(0)"><rect width="20" height="10" fill="#58a0db"/></g><g transform="translate(645.14,193.54) scale(3.2255000000000003) rotate(0)"><rect width="20" height="10" fill="#f4faff"/></g><rect x="709.66" y="193.54" width="64.51" height="64.51" fill="#a8cdec"/><rect x="0" y="258.06" width="64.51" height="64.51" fill="#81c5fe"/><rect x="64.51" y="258.06" width="64.51" height="64.51" fill="#4f9ad8"/><rect x="129.03" y="258.06" width="64.51" height="64.51" fill="#80c5fe"/><rect x="193.54" y="258.06" width="64.51" height="64.51" fill="#83b8e4"/><rect x="258.06" y="258.06" width="64.51" height="64.51" fill="#3fa7fd"/><g transform="translate(322.57,258.06) scale(3.2255000000000003) rotate(0)"><rect width="20" height="10" fill="#52b0fd"/></g><g transform="translate(387.09,258.06) scale(3.2255000000000003) rotate(0)"><rect width="20" height="10" fill="#cae7ff"/></g><g transform="translate(451.6,258.06) scale(3.2255000000000003) rotate(0)"><rect width="20" height="10" fill="#d2e5f5"/></g><g transform="translate(516.11,258.06) scale(3.2255000000000003) rotate(0)"><rect width="20" height="10" fill="#3aa5fd"/></g><g transform="translate(580.63,258.06) scale(3.2255000000000003) rotate(0)"><rect width="20" height="10" fill="#dbebf7"/></g><g transform="translate(645.14,258.06) scale(3.2255000000000003) rotate(0)"><rect width="20" height="10" fill="#b7defe"/></g><g transform="translate(709.66,258.06) scale(3.2255000000000003) rotate(0)"><rect width="20" height="10" fill="#93cefe"/></g><rect x="0" y="322.57" width="64.51" height="64.51" fill="#8abce5"/><g transform="translate(64.51,322.57) scale(3.2255000000000003) rotate(0)"><rect width="20" height="10" fill="#dbefff"/></g><rect x="129.03" y="322.57" width="64.51" height="64.51" fill="#cfe4f5"/><rect x="193.54" y="322.57" width="64.51" height="64.51" fill="#4dadfd"/><g transform="translate(258.06,322.57) scale(3.2255000000000003) rotate(0)"><rect width="20" height="10" fill="#7cc3fe"/></g><rect x="322.57" y="322.57" width="64.51" height="64.51" fill="#eaf3fa"/><rect x="387.09" y="322.57" width="64.51" height="64.51" fill="#71befe"/><g transform="translate(451.6,322.57) scale(3.2255000000000003) rotate(0)"><rect width="20" height="10" fill="#58a0db"/></g><rect x="516.11" y="322.57" width="64.51" height="64.51" fill="#d3e6f5"/><g transform="translate(580.63,322.57) scale(3.2255000000000003) rotate(0)"><rect width="20" height="10" fill="#5ca2db"/></g><rect x="645.14" y="322.57" width="64.51" height="64.51" fill="#deecf8"/><rect x="709.66" y="322.57" width="64.51" height="64.51" fill="#3e90d5"/><rect x="0" y="387.09" width="64.51" height="64.51" fill="#3ca5fd"/><rect x="64.51" y="387.09" width="64.51" height="64.51" fill="#5fa3dc"/><g transform="translate(129.03,387.09) scale(3.2255000000000003) rotate(0)"><rect width="20" height="10" fill="#289cfd"/></g><g transform="translate(193.54,387.09) scale(3.2255000000000003) rotate(0)"><rect width="20" height="10" fill="#e7f1fa"/></g><rect x="258.06" y="387.09" width="64.51" height="64.51" fill="#e0f1ff"/><g transform="translate(322.57,387.09) scale(3.2255000000000003) rotate(0)"><rect width="20" height="10" fill="#4795d7"/></g><g transform="translate(387.09,387.09) scale(3.2255000000000003) rotate(0)"><rect width="20" height="10" fill="#87bae5"/></g><rect x="451.6" y="387.09" width="64.51" height="64.51" fill="#a3caeb"/><rect x="516.11" y="387.09" width="64.51" height="64.51" fill="#9dd2fe"/><g transform="translate(580.63,387.09) scale(3.2255000000000003) rotate(0)"><rect width="20" height="10" fill="#6cabdf"/></g><g transform="translate(645.14,387.09) scale(3.2255000000000003) rotate(0)"><rect width="20" height="10" fill="#d2e5f5"/></g><g transform="translate(709.66,387.09) scale(3.2255000000000003) rotate(0)"><rect width="20" height="10" fill="#34a2fd"/></g></g></svg>